# xmcd
#
# Track frame offsets:
# 150
# 20096
# 33257
# 56246
# 80997
# 106572
# 133165
# 151668
# 168147
# 185771
# 222546
# 239429
# 263666
# 282873
# 304022
# 326443
#
# Disc length: 4607 seconds
#
#
# Revision: 0
# Processed by: cddbd v1.4PL0 Copyright (c) Steve Scherf et al.
# Submitted via: FreeRIP 2.30 
#
DISCID=df11fd10
DTITLE=Ray Charles - Blues and Jazz
DYEAR=1994
DGENRE=Blues and Jazz
TTITLE0=The Man I Love
TTITLE1=Music, Music, Music
TTITLE2=I Surrender Dear
TTITLE3=Hornful Sound
TTITLE4=Ain't Misbehavin'
TTITLE5=Doodlin'
TTITLE6=Sweet Sixteen Bars
TTITLE7=Undecided
TTITLE8=Rockhouse, Parts 1 and 2
TTITLE9=X-Ray Blues
TTITLE10=Love On My Mind
TTITLE11=Fathead
TTITLE12=Bill For Bennie
TTITLE13=Hard Times
TTITLE14=Willow Weep For Me
TTITLE15=The Spirit-Feel
EXTD=Rhino Records\nripped by:\nHagFan
EXTT0=
EXTT1=
EXTT2=
EXTT3=
EXTT4=
EXTT5=
EXTT6=
EXTT7=
EXTT8=
EXTT9=
EXTT10=
EXTT11=
EXTT12=
EXTT13=
EXTT14=
EXTT15=
PLAYORDER=
